<svg xmlns="http://www.w3.org/2000/svg" version="1.1" xmlns:xlink="http://www.w3.org/1999/xlink" xmlns:svgjs="http://svgjs.dev/svgjs" width="100%" height="100%" viewBox="0 0 1000 600"><rect width="1000" height="600" x="0" y="0" fill="#234e70"/><g><circle r="166.66666666666666" cx="323.3671518961588" cy="345.5893264260486" fill="#abf8be" transform="matrix(0.7977003306873185,0,0,0.7977003306873185,0,24.323261406096123)"/><path d="M259.4419791450285 420.5893217873057L259.4419791450285 420.5893217873057Q243.8837845116551 420.5893217873057 231.14625493585896 414.79953561648927Q218.40872536006282 409.0097494456728 209.1153762756241 399.09288492745395L209.1153762756241 399.09288492745395L218.8244023159163 387.60238621921826Q226.57380842147057 396.06438139194995 237.3220268513965 400.7555927508679Q248.07024528132237 405.44680410978583 259.64981762295525 405.44680410978583L259.64981762295525 405.44680410978583Q274.37665834462166 405.44680410978583 282.60112382829425 398.76628160499763Q290.85528052309917 392.08575910020943 290.85528052309917 381.21877582575394L290.85528052309917 381.21877582575394Q290.85528052309917 373.499060931332 287.6189385096685 368.86723199467895Q284.38259649623774 364.20571184689334 278.86003122561283 361.147517100257Q273.3374659549879 358.05963114248823 266.4194137611406 355.0311276069842L266.4194137611406 355.0311276069842L245.54649233506905 345.73777852254557Q238.86596983028087 342.8280398315711 232.09637369209548 338.2259021060504Q225.29708634277773 333.6237643805297 220.75433103952176 326.43849128649083Q216.2115757362658 319.22352698131954 216.2115757362658 308.68314702932037L216.2115757362658 308.68314702932037Q216.2115757362658 297.6083252769382 222.06074432934702 289.0572564708093Q227.90991292242825 280.5061876646804 238.09399834083868 275.54775540557097Q248.2780837592491 270.58932314646154 261.1046869684425 270.58932314646154L261.1046869684425 270.58932314646154Q274.37665834462166 270.58932314646154 285.2139504079447 275.6071378278357Q296.0809336824002 280.5952612980776 303.50373646549815 288.01806408117557L303.50373646549815 288.01806408117557L294.0025489031327 299.50856278941126Q287.41110003174174 293.2437172404766 279.0678697035396 289.5323158489276Q270.72463937533746 285.8209144573786 261.1046869684425 285.8209144573786L261.1046869684425 285.8209144573786Q248.7828343484998 285.8209144573786 241.21157550973984 291.7888478949894Q233.67000788211226 297.72709012146777 233.67000788211226 307.6439546396866L233.67000788211226 307.6439546396866Q233.67000788211226 314.74015410032837 237.3220268513965 319.3422918258491Q240.9740458206807 323.9147383402375 246.4966110913056 326.91355066460903Q252.0191763619305 329.88267177784826 257.660506477085 332.28765987957195L257.660506477085 332.28765987957195L278.3255894252298 341.13564079702485Q286.78758459796154 344.6985861329118 293.5868719472793 349.59763596975654Q300.3564680854646 354.49668580660114 304.3350903772051 361.7710325340372Q308.2840214578133 369.0156880503408 308.2840214578133 379.8826713247963L308.2840214578133 379.8826713247963Q308.2840214578133 391.25440518850246 302.34577923133486 400.48837185067634Q296.3778457937241 409.72233851285023 285.48117130813625 415.1558301500779Q274.58449682254843 420.5893217873057 259.4419791450285 420.5893217873057ZM393.34934135211626 420.5893217873057L393.34934135211626 420.5893217873057Q374.3766574385178 420.5893217873057 359.6498167168514 411.6522672364557Q344.92297599518497 402.74490389673815 336.6391280892476 385.96936960693665Q328.3255889721779 369.2235265282676 328.3255889721779 345.73777852254557L328.3255889721779 345.73777852254557Q328.3255889721779 322.4598689947503 336.90634898943915 305.65464349381637Q345.457417795568 288.84941799288254 360.3920969951612 279.7342161752382Q375.29708498362197 270.58932314646154 394.50729858627955 270.58932314646154L394.50729858627955 270.58932314646154Q409.5310514192699 270.58932314646154 419.56668078201847 276.230653261616Q429.57261893363443 281.87198337677046 435.8374644825692 288.4337410370291L435.8374644825692 288.4337410370291L426.4550417647333 299.30072431148454Q421.02155012750563 293.4515557184033 413.3909088664808 289.6510806934572Q405.7899588165885 285.8209144573786 394.92297554213303 285.8209144573786L394.92297554213303 285.8209144573786Q380.10706118706946 285.8209144573786 369.15100427921686 293.0952611848146Q358.19494737136415 300.3399167011182 352.19732272262104 313.64157928842985Q346.1700068627454 326.9432418757415 346.1700068627454 345.322101566692L346.1700068627454 345.322101566692Q346.1700068627454 373.08338397547857 358.8184628051444 389.2650940426322Q371.437227536411 405.44680410978583 394.92297554213303 405.44680410978583L394.92297554213303 405.44680410978583Q402.8505289144817 405.44680410978583 410.0654932196529 403.21996327485635Q417.2804575248242 400.96343122879455 421.7638304058154 396.68789682573015L421.7638304058154 396.68789682573015L421.7638304058154 357.85179266456146L390.5583675056714 357.85179266456146L390.5583675056714 343.54062889874854L437.6189371505127 343.54062889874854L437.6189371505127 403.873169919769Q430.73057616779784 411.1772078583374 419.24007745956214 415.8981104283878Q407.7792699624588 420.5893217873057 393.34934135211626 420.5893217873057Z " fill="#234e70" transform="matrix(0.7977003306873185,0,0,0.7977003306873185,0,24.323261406096123)"/><path d="M620.6343031634226 420.58932198009916L620.6343031634226 420.58932198009916Q606.0219219285841 420.58932198009916 594.0587319481533 415.1515083526306Q582.0955419677225 409.7136947251621 573.3671539400423 400.399695999139L573.3671539400423 400.399695999139L582.4859490999511 389.6077274153938Q589.7642534936397 397.555301178617 599.8590664841197 401.96132452805307Q609.9538794745998 406.3673478774891 620.8295067295369 406.3673478774891L620.8295067295369 406.3673478774891Q634.6610736999185 406.3673478774891 642.3855576732968 400.0929475381023Q650.1379278704057 393.8185471987156 650.1379278704057 383.612189313313L650.1379278704057 383.612189313313Q650.1379278704057 376.361771143355 647.0983294837696 372.01152024138014Q644.0587310971333 367.63338311567475 638.8718934832402 364.7611020714221Q633.6850558693471 361.8609348034389 627.1875657401155 359.0165399829169L627.1875657401155 359.0165399829169L607.5835504574982 350.2881519552366Q601.3091501181113 347.555302029637 594.9510911075328 343.2329373513928Q588.5651458732235 338.91057267314864 584.2985536424405 332.1621065303415Q580.0319614116574 325.38575416380377 580.0319614116574 315.4861447394379L580.0319614116574 315.4861447394379Q580.0319614116574 305.0845832879212 585.5255474865874 297.0533508535061Q591.019133561517 289.02211841909104 600.5841083011155 284.3651190560795Q610.149083040714 279.70811969306794 622.1959316923367 279.70811969306794L622.1959316923367 279.70811969306794Q634.6610736999185 279.70811969306794 644.8395453615904 284.4208915035407Q655.0459032469928 289.10577709028286 662.0174591796448 296.0773330229348L662.0174591796448 296.0773330229348L653.0938675858503 306.8693016066801Q646.9031259176553 300.98530839952184 639.0670970493545 297.49953043319584Q631.2310681810536 294.01375246686985 622.1959316923367 294.01375246686985L622.1959316923367 294.01375246686985Q610.6231488441344 294.01375246686985 603.5121617928294 299.61888343672206Q596.429060965255 305.1961281828436 596.429060965255 314.5101269088667L596.429060965255 314.5101269088667Q596.429060965255 321.174934380482 599.8590664841197 325.4972990587262Q603.2890720029845 329.7917775132398 608.4759096168775 332.60828611003114Q613.6627472307707 335.39690848309203 618.9611297395861 337.65569260527127L618.9611297395861 337.65569260527127L638.3699414560892 345.9657872769924Q646.3175152193126 349.31213412466536 652.7034604536218 353.9133610402156Q659.0615194642003 358.51458795576593 662.7982734441018 365.34671276976485Q666.5071412002726 372.1509513600332 666.5071412002726 382.35730924543566L666.5071412002726 382.35730924543566Q666.5071412002726 393.03773293425854 660.929896454151 401.7103485144776Q655.324765484299 410.3829640946966 645.0905213751657 415.48614303739794Q634.8562772660327 420.58932198009916 620.6343031634226 420.58932198009916ZM707.6950936503805 418.13533429180563L691.799946123934 418.13533429180563L691.799946123934 270.58932453315924L707.6950936503805 270.58932453315924L707.6950936503805 311.16378006119373L707.1094829520378 332.05056163541906Q714.3599011219958 325.1068919264977 722.391133556411 320.1989165499107Q730.4223659908259 315.29094117332363 740.8239274423428 315.29094117332363L740.8239274423428 315.29094117332363Q756.523871402675 315.29094117332363 763.8579482438249 325.2463230451507Q771.2199113087054 335.20170491697775 771.2199113087054 354.4153130673666L771.2199113087054 354.4153130673666L771.2199113087054 418.13533429180563L755.5199673483731 418.13533429180563L755.5199673483731 356.47889362343153Q755.5199673483731 342.1453746258991 750.9187404328228 335.5921120492062Q746.3175135172726 329.0109632487828 735.832293394564 329.0109632487828L735.832293394564 329.0109632487828Q728.079923197455 329.0109632487828 721.8055228580681 333.1381243609128Q715.5311225186814 337.2652854730427 707.6950936503805 345.1013143413436L707.6950936503805 345.1013143413436L707.6950936503805 418.13533429180563ZM827.1039036648436 420.58932198009916L827.1039036648436 420.58932198009916Q814.5551029860701 420.58932198009916 806.1334634194264 413.2831313626799Q797.6839376290523 405.97694074526066 797.6839376290523 392.3405773409934L797.6839376290523 392.3405773409934Q797.6839376290523 375.88770533993466 812.6309535486581 367.047772417332Q827.577969468264 358.2357257184599 859.8423303245773 354.61051663348087L859.8423303245773 354.61051663348087Q859.8423303245773 347.9457091618656 858.0297257820878 341.9501710597848Q856.2171212395983 335.9825191814348 851.6716667715092 332.1621065303415Q847.0983260796895 328.34169387924817 838.676686513046 328.34169387924817L838.676686513046 328.34169387924817Q829.7530949192515 328.34169387924817 821.9449522746811 331.771699398113Q814.1646958538415 335.20170491697775 808.2807026466833 338.91057267314864L808.2807026466833 338.91057267314864L802.0899609784883 328.34169387924817Q808.7547684501036 323.7125807399673 818.9053538880448 319.5017609566455Q829.0559393259862 315.29094117332363 841.2143328725313 315.29094117332363L841.2143328725313 315.29094117332363Q859.5634680872713 315.29094117332363 867.6504729691476 326.55697556048926Q875.7374778510239 337.85089617138544 875.7374778510239 356.28369005731736L875.7374778510239 356.28369005731736L875.7374778510239 418.13533429180563L862.4915215789852 418.13533429180563L861.2087552873771 405.97694074526066L860.6231445890344 405.97694074526066Q853.3727264190763 411.97247884734134 844.8953144049715 416.266957301855Q836.4179023908666 420.58932198009916 827.1039036648436 420.58932198009916ZM831.4262683430879 407.8453177352113L831.4262683430879 407.8453177352113Q838.955548750352 407.8453177352113 845.5924699982368 404.3037673214242Q852.2015050223908 400.7901031313676 859.8423303245773 394.20895433094404L859.8423303245773 394.20895433094404L859.8423303245773 365.2072816511119Q842.4970991641392 367.3545208783687 832.2907412787367 370.8681850684253Q822.1122696170648 374.40973548221245 817.6783600438982 379.40136952999126Q813.2723366944621 384.4208898015007 813.2723366944621 391.085697273116L813.2723366944621 391.085697273116Q813.2723366944621 400.00928886691054 818.5707192032776 403.9133601891956Q823.8691017120931 407.8453177352113 831.4262683430879 407.8453177352113ZM923.6738964439389 418.13533429180563L907.7787489174923 418.13533429180563L907.7787489174923 270.58932453315924L923.6738964439389 270.58932453315924L923.6738964439389 311.16378006119373L923.0882857455961 332.05056163541906Q930.3387039155541 325.1068919264977 938.3699363499693 320.1989165499107Q946.4011687843843 315.29094117332363 956.8027302359011 315.29094117332363L956.8027302359011 315.29094117332363Q972.5026741962333 315.29094117332363 979.8367510373832 325.2463230451507Q987.1987141022637 335.20170491697775 987.1987141022637 354.4153130673666L987.1987141022637 354.4153130673666L987.1987141022637 418.13533429180563L971.4987701419315 418.13533429180563L971.4987701419315 356.47889362343153Q971.4987701419315 342.1453746258991 966.8975432263811 335.5921120492062Q962.2963163108309 329.0109632487828 951.8110961881223 329.0109632487828L951.8110961881223 329.0109632487828Q944.0587259910133 329.0109632487828 937.7843256516264 333.1381243609128Q931.5099253122396 337.2652854730427 923.6738964439389 345.1013143413436L923.6738964439389 345.1013143413436L923.6738964439389 418.13533429180563ZM1035.8322882884438 418.13533429180563L1019.9371407619974 418.13533429180563L1019.9371407619974 317.8564737565396L1035.8322882884438 317.8564737565396L1035.8322882884438 418.13533429180563ZM1028.1635767625266 296.6629437212776L1028.1635767625266 296.6629437212776Q1023.3671462808621 296.6629437212776 1020.4390927891483 293.67911778210254Q1017.4831530737039 290.69529184292753 1017.4831530737039 285.67577157141807L1017.4831530737039 285.67577157141807Q1017.4831530737039 281.0745446558678 1020.4390927891483 278.146491164154Q1023.3671462808621 275.19055144870947 1028.1635767625266 275.19055144870947L1028.1635767625266 275.19055144870947Q1032.9878934679218 275.19055144870947 1035.9159469596357 278.146491164154Q1038.87188667508 281.0745446558678 1038.87188667508 285.67577157141807L1038.87188667508 285.67577157141807Q1038.87188667508 290.69529184292753 1035.9159469596357 293.67911778210254Q1032.9878934679218 296.6629437212776 1028.1635767625266 296.6629437212776ZM1087.589119532452 420.58932198009916L1087.589119532452 420.58932198009916Q1078.5539830437351 420.58932198009916 1074.510480602797 415.03996345770815Q1070.4390919381283 409.5184911590478 1070.4390919381283 398.9217261414168L1070.4390919381283 398.9217261414168L1070.4390919381283 270.58932453315924L1086.3063532408441 270.58932453315924L1086.3063532408441 400.2044924330248Q1086.3063532408441 404.2201086502323 1087.7843230985663 405.8375096266076Q1089.2622929562885 407.45491060298286 1091.297987288623 407.45491060298286L1091.297987288623 407.45491060298286Q1092.1066877768108 407.45491060298286 1092.8317295938064 407.39913815552165Q1093.5567714108024 407.34336570806045 1094.8395377024103 407.0645034707543L1094.8395377024103 407.0645034707543L1096.9031182584754 418.91614855626267Q1095.229944834639 419.61330414952783 1092.8875020412677 420.08736995294817Q1090.517173024166 420.58932198009916 1087.589119532452 420.58932198009916Z " fill="#fbf8be" transform="matrix(0.7977003306873185,0,0,0.7977003306873185,0,24.323261406096123)"/></g></svg>